<?xml version="1.0" encoding="UTF-8"?>
<svg id="Layer_1" data-name="Layer 1" xmlns="http://www.w3.org/2000/svg" viewBox="0 0 144 144">
  <defs>
    <style>
      .cls-1 {
        fill: #30302f;
      }

      .cls-2 {
        fill: #dddcd6;
      }

      .cls-3 {
        fill: #365b91;
      }

      .cls-4 {
        fill: #0c0e11;
      }

      .cls-5 {
        fill: #363c46;
      }

      .cls-6 {
        fill: #515d70;
      }
    </style>
  </defs>
  <path class="cls-4" d="M74.81,62.4c-.64.11-.58.71-.74,1.17-.74,2.17-3.04,11.63-3.05,13.6,0,1.08,1.87,4.67,2.24,6.35,1.47,6.73-.24,13.87-.87,20.62-.12,1.33.18,2.86-.02,4.13-.19,1.17-1.19,1.65-1.28,2.14-.27,1.44,1.15,4.36.54,6.47-.23.8-3.44,3-4.29,3.33-1.04.4-2.41.24-2.92.55-.18.11-1.63,2.5-2.6,3.29-3.6,2.92-14.37,4.45-13.31-2.22.3-1.92,4.44-4.4,5.88-5.89.64-.66,4.1-5.04,4.06-5.56-.02-.27-.8-.62-.95-1.39-.51-2.58.15-7.45,0-10.4-.8-17.31-5.78-35.84-4.51-52.97.39-5.26,2.62-10.88,3.19-16.2.29-.59,1.02-.91,1.58-1.19,7-3.52,27.72-3.12,35.05-.26,4.42,1.72,3.26,4.85,4.32,8.84,2.62,9.9,3.45,13.48,2.22,24-.52,4.41-3.58,17.08-2.91,20.33.34,1.66,1.39,3.55,1.76,5.51,1.93,10.08-.81,22.36-1.94,32.38-.28,2.51,1.66,6.01-.14,8.16-.33.4-2.2,1.99-2.62,2.23-.95.54-1.99.39-2.58.88s-1.52,2.5-2.48,3.4c-1.22,1.15-4.21,2.92-5.86,3.14-4.55.62-11.75-.85-8.61-6.88,1.07-2.05,8.08-9.6,8.11-10.93.01-.52-.62-1.22-.69-2.07-.82-10,.39-20.13-1.07-30.44-1.14-8.05-4.19-16.06-5.5-24.11ZM92.82,30.2c-.74-.98-11.48-2.35-13.31-2.45-6.99-.37-14.37-.04-20.97,2.27.01.66.93,1.07,1.43,1.34,6.44,3.56,25.74,3.7,32.06-.06.32-.19,1.16-.63.8-1.1ZM58.48,32.68c-.05-.08-.74-.27-.97-.41-.15,1.6-1.45,4.3.52,4.84.75.21.48-.4.51-.85.04-.6.11-3.33-.06-3.58ZM94.2,32.27c-4.19,1.83-8.59,2.97-13.14,3.48l-.02,4.14c.85.84,11.06-1.91,12.59-2.82,2.16-1.29.85-2.83.57-4.8ZM60.61,39.37c.28-1.79-.21-4.19,0-6.06-.27-.2-.69.7-.69.87v6.06c.3.14.65-.57.69-.87ZM66.85,35.39c-1.49-.26-3.19-1.24-4.85-1.04v4.85c1.55-.1,3.01.42,4.5.69,1.87.34,3.26.61,5.19.69,1.72.08,3.47-.06,5.2,0v-4.5s-5.54-.35-5.54-.35l-.34.17.34.17c.21,1.43.35,2.27.35,3.81l-5.19-.35.35-3.81,2.6.69c.9-1.71-1.5-.85-2.6-1.03ZM79.66,41.62c.19-.19,0-4.6,0-5.37,0-.37-.98-.66-1.39-.52v5.89c0,.07,1.34.05,1.39,0ZM68.44,36.81c-1.25.41-.31,2.77.99,2.39.92-.27.9-3.01-.99-2.39ZM93.86,38.51c-.39.21-.65.67-.69.69-1.11.45-8.63,1.83-8.67,2.28,1.9,5.13,5.32,8.53,11.09,8.46.23,0,.46,0,.69,0,.06.61.34,1.14.35,2.08-.3-.06-.82.09-1.04,0-1.9-.75-3.4-.71-5.29-1.46-3.25-1.29-4.9-3.7-6.54-6.61-.66-1.17-.15-2.48-2.12-1.97-.48.12-.2,1.21-1.79,1.41-2.94.36-2.31-1.17-3.47-1.4-1.42-.29-2.92.44-4.33.35v7.45c0,1.09,1.12,1.52-.52,2.95-3.97,3.46-4.64-.92-5.02-3.99-.13-1.07-.11-7.16-.37-7.43-.14-.14-3.74-.76-3.97-.73-.83.12-.74.96-1.3,1.19-.8.33-1.54-.19-1.99.03s-1.41,2.02-1.9,2.62c-.41.49-1.88,1.51-1.91,1.63-.34,1.41-.1,7.77,0,9.64.64,13.38,3.94,26.43,4.53,39.8.15,3.28-.11,6.6-.01,9.88,0,.23-.01.46,0,.69.08,1.66-.47,2.48,1.39,3.29,2.31,1,5.01.63,7.27-.17.51-.18,1.51-.02,1.91-.69.64-1.08-.21-2.25-.18-2.78.51-7.42,2.98-15.18,1.02-22.66-.34-1.31-1.42-3.08-1.63-4.26-.78-4.25,2.31-14.19,3.38-18.79.05-.22.38-.5.32-.83-.22-.67-1.61-.57-2.33-.8-2.02-.64-3.99-1.42-5.96-2.18-.07-.17-1.14-.7-.69-1.73.43-.44,9.39,2.98,10.83,3.19l.86.87c1.59,6.72,3.71,13.35,5.18,20.1,2.51,11.55,2.92,23.67,2.87,35.4,0,.39-.34.83-.35,1.04-.09,2.18.22,2.69,2.35,3.37,2.76.88,4.8.54,7.35-.59,1.68-.74,2.07-.37,2.09-2.6,0-.48-.37-1.06-.36-1.21.46-9.36,3.15-19.17.94-28.47-.4-1.67-1.65-4.13-1.66-5.64-.01-6.3,2.85-15.67,3.49-22.51.37-4.01.51-8.03-.09-12.02-.16-1.1-1.51-7.34-2.18-7.51-.49-.12-1.13.44-1.53.66ZM58.19,39.22c-.06-.08-1.66-.8-1.91-.37-.48.84-.59,3.73-.85,4.86.98-.2,3.11-4.02,2.76-4.48ZM70.65,41.97c-.11-.11-2.6-.21-3.11-.35-.18,1.36.37,10.21,1.26,10.41,3.15.7,1.88-1.76,1.84-3.3-.02-.99.26-6.53.01-6.76ZM69.27,111.23c-3.31.85-5.99.81-9.31.04-1.82,4.7-6.07,7.68-9.73,10.87,2.62,2.28,7.49,1.23,10.15-.58,1.97-1.34,3.21-3.8,5.07-5.32s4.53-1.73,3.82-5.01ZM69.62,114.69c-1.08.91-2.64,2.01-2.94,3.46,1.57-.81,3.38-1.25,2.94-3.46ZM94.2,119.89c-3.63,1.15-6.73,1.5-10.35.02l-8.18,11.07c-.29,2.96,5.03,2.66,7.04,2.17,4.31-1.04,5.63-4.6,8.19-7.39,1.86-2.02,4.1-2.17,3.3-5.88Z"/>
  <path class="cls-3" d="M59.58,105.34c-.1-3.28.16-6.61.01-9.88-.59-13.37-3.89-26.42-4.53-39.8-.09-1.87-.34-8.23,0-9.64.03-.12,1.51-1.14,1.91-1.63.49-.59,1.47-2.41,1.9-2.62s1.19.3,1.99-.03c.57-.23.47-1.07,1.3-1.19.23-.03,3.83.58,3.97.73.26.27.23,6.35.37,7.43.38,3.07,1.05,7.45,5.02,3.99,1.63-1.42.52-1.85.52-2.95v-7.45c1.42.09,2.91-.64,4.33-.35,1.16.23.53,1.76,3.47,1.4,1.59-.19,1.3-1.28,1.79-1.41,1.96-.51,1.46.8,2.12,1.97,1.64,2.91,3.3,5.32,6.54,6.61,1.89.75,3.39.72,5.29,1.46-.13,2.28-.13,4.84-.35,7.1-.6,5.99-2.16,12.14-2.72,18.06-.46,4.88.34,5.53,1.19,9.81,1.49,7.55.11,16.13-.53,23.74-.11,1.3.58,4.06-.87,4.33-2.46.46-6.18-.02-8.48-1.04.05-11.73-.37-23.84-2.87-35.4-1.46-6.75-3.59-13.38-5.18-20.1l-.86-.87c-1.45-.21-10.4-3.63-10.83-3.19-.45,1.03.62,1.55.69,1.73.26.67.06.99.69,1.91,1.22,1.75,3.57,2.06,4.47,3.78l-2.78,16.31c3.4,8.83,1.07,18.46,1.09,27.64-2.72,1.38-5.95.38-8.67-.46Z"/>
  <path class="cls-3" d="M92.82,30.2c.36.47-.47.91-.8,1.1-6.32,3.76-25.62,3.62-32.06.06-.5-.27-1.42-.68-1.43-1.34,6.6-2.32,13.98-2.64,20.97-2.27,1.83.1,12.57,1.47,13.31,2.45Z"/>
  <path class="cls-5" d="M94.2,119.89c.8,3.71-1.44,3.86-3.3,5.88-2.56,2.79-3.88,6.35-8.19,7.39-2.01.48-7.33.79-7.04-2.17l8.18-11.07c3.62,1.48,6.71,1.13,10.35-.02Z"/>
  <path class="cls-3" d="M94.9,114c-1.54,1.34-1.09-1.79-1.05-2.61.31-6.4,1.86-13.27,1.41-19.74-.27-3.94-2.2-8.39-2.11-12.12.22-8.81,3.57-18.31,3.48-27.52,0-.93-.29-1.47-.35-2.08-.36-3.9-.8-7.83-2.42-11.43.4-.22,1.04-.78,1.53-.66.67.17,2.02,6.41,2.18,7.51.6,3.99.47,8.01.09,12.02-.64,6.84-3.5,16.21-3.49,22.51,0,1.51,1.26,3.97,1.66,5.64,2.21,9.3-.47,19.11-.94,28.47Z"/>
  <path class="cls-5" d="M69.27,111.23c.71,3.28-1.94,3.48-3.82,5.01s-3.1,3.98-5.07,5.32c-2.66,1.8-7.53,2.86-10.15.58,3.66-3.19,7.91-6.17,9.73-10.87,3.32.77,5.99.81,9.31-.04Z"/>
  <path class="cls-3" d="M93.17,39.2c1.08,3.51,2.03,7.06,2.42,10.74-5.77.07-9.19-3.32-11.09-8.46.04-.45,7.55-1.83,8.67-2.28Z"/>
  <path class="cls-5" d="M72.74,59.98l-1.38-.17c-.65,5.03-2.78,10.56-3.11,15.58-.25,3.83,1.44,7.55,1.72,11.43.44,6.22-1.24,12.33-1.05,18,.04,1.11-.07.9,1.05.86-.04.53.82,1.7.18,2.78-.4.66-1.4.51-1.91.69v-2.08c-3.19.77-5.74.25-8.66-1.04-.01-.23,0-.46,0-.69,2.72.84,5.95,1.84,8.67.46-.02-9.17,2.31-18.81-1.09-27.64l2.78-16.31c-.9-1.72-3.26-2.03-4.47-3.78-.63-.91-.43-1.24-.69-1.91,1.97.76,3.94,1.54,5.96,2.18.71.22,2.1.13,2.33.8.06.33-.27.61-.32.83Z"/>
  <path class="cls-5" d="M96.63,52.01c.09,9.21-3.26,18.71-3.48,27.52-.09,3.73,1.84,8.17,2.11,12.12.44,6.47-1.1,13.34-1.41,19.74-.04.82-.48,3.95,1.05,2.61,0,.14.36.73.36,1.21-.02,2.23-.41,1.86-2.09,2.6v-2.08c-3.43.58-6.43.52-9.7-.69,0-.21.34-.64.35-1.04,2.3,1.02,6.02,1.49,8.48,1.04,1.45-.27.76-3.02.87-4.33.64-7.61,2.02-16.2.53-23.74-.84-4.28-1.65-4.93-1.19-9.81.56-5.92,2.13-12.06,2.72-18.06.22-2.25.22-4.82.35-7.1.22.09.74-.06,1.04,0Z"/>
  <path class="cls-3" d="M72.74,59.98c-1.07,4.6-4.16,14.54-3.38,18.79.22,1.17,1.29,2.95,1.63,4.26,1.96,7.49-.51,15.24-1.02,22.66-1.12.03-1.02.24-1.05-.86-.19-5.67,1.49-11.78,1.05-18-.28-3.88-1.97-7.6-1.72-11.43.33-5.02,2.46-10.55,3.11-15.58l1.38.17Z"/>
  <path class="cls-3" d="M94.2,32.27c.28,1.96,1.59,3.5-.57,4.8-1.53.92-11.74,3.67-12.59,2.82l.02-4.14c4.55-.51,8.95-1.65,13.14-3.48Z"/>
  <path class="cls-3" d="M70.65,41.97c.24.23-.04,5.77-.01,6.76.04,1.54,1.31,4-1.84,3.3-.89-.2-1.44-9.06-1.26-10.41.51.14,3,.24,3.11.35Z"/>
  <path class="cls-3" d="M83.47,115.04c3.27,1.21,6.27,1.27,9.7.69v2.08c-2.55,1.13-4.59,1.47-7.35.59-2.13-.68-2.44-1.18-2.35-3.37Z"/>
  <path class="cls-3" d="M71.35,35.74l5.54.35v4.5c-1.72-.06-3.47.07-5.2,0,0-.23,0-.46,0-.69,0-1.54-.14-2.38-.35-3.81-.02-.11.01-.23,0-.35Z"/>
  <path class="cls-3" d="M66.85,35.39v.35l-.35,3.81v.35c-1.49-.27-2.95-.79-4.5-.69v-4.85c1.66-.21,3.36.78,4.85,1.04Z"/>
  <path class="cls-3" d="M59.58,106.04c2.92,1.29,5.47,1.81,8.66,1.04v2.08c-2.26.8-4.95,1.17-7.27.17-1.86-.81-1.3-1.63-1.39-3.29Z"/>
  <path class="cls-1" d="M96.28,49.94c-.23,0-.46,0-.69,0-.39-3.67-1.34-7.22-2.42-10.74.05-.02.31-.48.69-.69,1.63,3.6,2.07,7.53,2.42,11.43Z"/>
  <path class="cls-5" d="M79.66,41.62s-1.39.07-1.39,0v-5.89c.4-.14,1.39.15,1.39.52,0,.77.19,5.18,0,5.37Z"/>
  <path class="cls-6" d="M58.19,39.22c.35.47-1.78,4.29-2.76,4.48.27-1.13.37-4.02.85-4.86.25-.43,1.85.3,1.91.37Z"/>
  <path class="cls-5" d="M58.48,32.68c.17.25.1,2.98.06,3.58-.03.46.24,1.06-.51.85-1.97-.54-.68-3.24-.52-4.84.23.14.92.33.97.41Z"/>
  <path class="cls-2" d="M68.44,36.81c1.89-.62,1.9,2.12.99,2.39-1.3.38-2.24-1.98-.99-2.39Z"/>
  <path class="cls-5" d="M60.61,39.37c-.05.29-.39,1-.69.87v-6.06c0-.16.43-1.06.69-.87-.21,1.87.28,4.27,0,6.06Z"/>
  <path class="cls-1" d="M69.62,114.69c.44,2.21-1.37,2.65-2.94,3.46.3-1.45,1.86-2.55,2.94-3.46Z"/>
  <path class="cls-1" d="M71.7,39.89c0,.23,0,.46,0,.69-1.94-.09-3.33-.35-5.19-.69v-.35l5.19.35Z"/>
  <path class="cls-1" d="M66.85,35.39c1.1.19,3.5-.68,2.6,1.03l-2.6-.69v-.35Z"/>
  <path class="cls-5" d="M71.35,36.08l-.34-.17.34-.17c.01.11-.02.23,0,.35Z"/>
</svg>